<svg viewBox="0 0 28 32" fill="none" xmlns="http://www.w3.org/2000/svg">
  <path d="M11.9063 4.18126L13.2938 2.79376C13.8813 2.20626 14.8313 2.20626 15.4125 2.79376L27.5625 14.9375C28.15 15.525 28.15 16.475 27.5625 17.0563L15.4125 29.2063C14.825 29.7938 13.875 29.7938 13.2938 29.2063L11.9063 27.8188C11.3125 27.225 11.325 26.2563 11.9313 25.675L19.4625 18.5H1.5C0.668754 18.5 3.8147e-06 17.8313 3.8147e-06 17V15C3.8147e-06 14.1688 0.668754 13.5 1.5 13.5H19.4625L11.9313 6.32501C11.3188 5.74376 11.3063 4.77501 11.9063 4.18126Z" fill="black" />
</svg>