<svg xmlns="http://www.w3.org/2000/svg" xmlns:xlink="http://www.w3.org/1999/xlink" aria-hidden="true" role="img" class="iconify iconify--fa-solid" width="16" height="16" preserveAspectRatio="xMidYMid meet" viewBox="0 0 900 900"><path d="M1024 1024H896L768 874.656 640 1024H512l192-224-192-224h128l128 149.328L896 576h128L832 800l192 224zM448 768h64v64h-64s-64-28.656-64-64V64c0-35.344 28.656-64 64-64h320c35.344 0 64 28.656 64 64v448h-64V320H640v192h-64V320H448v192h64v64h-64v192z m192-512h128V64H640v192z m-64 0V64H448v192h128zM64 832S0 803.344 0 768V64C0 28.656 28.656 0 64 0h128c35.344 0 64 28.656 64 64v768H64zM192 64H64v192h128V64z m0 256H64v192h128V320z m0 256H64v192h128V576z" fill="currentColor"></path></svg>