<svg xmlns="http://www.w3.org/2000/svg" xmlns:xlink="http://www.w3.org/1999/xlink" aria-hidden="true" role="img" class="iconify iconify--fa-solid" width="16" height="16" preserveAspectRatio="xMidYMid meet" viewBox="0 0 900 900"><path d="M1024 1024H896L768 874.656 640 1024H512l192-224-192-224h128l128 149.328L896 576h128L832 800l192 224zM576 512H320v128h106.672L448 704H320v128h170.672L512 896H64c-35.344 0-64-28.656-64-64V512s28.656-64 64-64h768v64H576z m-320 0H64v128h192V512z m0 192H64v128h192V704zM64 256c-35.344 0-64-28.656-64-64V64S28.656 0 64 0h704c35.344 0 64 28.656 64 64v192H64zM256 64H64v128h192V64z m256 0H320v128h192V64z m256 0H576v128h192V64z" fill="currentColor"></path></svg>