<svg xmlns="http://www.w3.org/2000/svg" xmlns:xlink="http://www.w3.org/1999/xlink" aria-hidden="true" role="img" class="iconify iconify--fa-solid" width="16" height="16" preserveAspectRatio="xMidYMid meet" viewBox="0 0 1100 1100"><path d="M950.851429 1023.994V804.566286l219.427714-146.284143v219.426714L950.851429 1023.994zM511.997 731.424714L804.566286 511.997h365.712857L877.708857 731.424714H511.997zM877.708857 292.568286H658.282143V511.997H365.711857v146.285143h73.142572v73.142571H73.142571C32.749808 731.424714 0 698.674906 0 658.282143V73.142571C0 32.749808 32.749808 0 73.142571 0h804.566286c40.392763 0 73.142571 32.749808 73.142572 73.142571v365.711858h-73.142572V292.569286zM292.569286 73.142571H73.142571v146.285143H292.568286V73.142571z m0 219.426715H73.142571v146.285143H292.568286V292.569286z m0 219.427714H73.142571v146.285143H292.568286V511.997zM585.139571 73.142571H365.711857v146.285143h219.427714V73.142571z m0 219.426715H365.711857v146.285143h219.427714V292.569286zM877.708857 73.142571H658.282143v146.285143h219.426714V73.142571z m0 950.851429H511.997V804.566286h365.711857V1023.994z" fill="currentColor"></path></svg>