<svg t="1690788014363" class="icon" viewBox="0 0 1024 1024" version="1.1" xmlns="http://www.w3.org/2000/svg" p-id="11310" width="81" height="81"><path d="M451.035429 319.414857l-97.133715 257.133714c56.576 0.585143 113.152 2.304 169.728 2.304 10.861714 0 21.723429-0.585143 32.585143-1.133714-29.696-86.857143-64.585143-175.433143-105.142857-258.304zM36.754286 950.857143l1.133714-45.129143c53.723429-16.566857 112.018286-5.156571 136.009143-66.852571l135.424-352 160-413.696h73.142857c2.304 3.986286 4.571429 8.009143 6.290286 11.995428l117.138285 274.285714c42.861714 101.156571 82.285714 203.446857 125.696 304.018286 25.709714 59.428571 45.714286 120.576 74.276572 178.870857 3.986286 9.142857 11.995429 26.294857 20.004571 32.585143 18.870857 14.848 71.424 18.285714 98.304 28.562286 1.718857 10.861714 3.437714 21.723429 3.437715 32.585143 0 5.156571-0.585143 9.728-0.585143 14.848-72.557714 0-145.152-9.142857-217.709715-9.142857-74.861714 0-149.723429 6.290286-224.585142 8.557714 0-14.848 0.585143-29.696 2.304-44.580572L621.897143 889.746286c15.433143-3.437714 45.714286-7.424 45.714286-28.562286 0-20.553143-73.728-190.281143-82.870858-213.723429l-257.133714-1.133714c-14.848 33.133714-72.557714 182.857143-72.557714 204.580572 0 43.995429 84.004571 45.714286 116.553143 50.285714 0.585143 10.861714 0.585143 21.723429 0.585143 33.133714 0 5.156571-0.585143 10.276571-1.133715 15.433143-66.304 0-133.156571-11.446857-199.424-11.446857-8.009143 0-19.419429 3.437714-27.428571 4.571428-35.986286 6.290286-71.424 8.009143-107.446857 8.009143z" fill="currentColor" p-id="11311"></path></svg>