<svg t="1690869873647" class="icon" viewBox="0 0 1024 1024" version="1.1" xmlns="http://www.w3.org/2000/svg" p-id="4142" width="81" height="81"><path d="M816.128 135.552l-144.085333 160.085333a21.333333 21.333333 0 0 0 15.872 35.626667H768v369.024h-80.085333a21.333333 21.333333 0 0 0-15.872 35.584L816.128 896a21.333333 21.333333 0 0 0 31.744 0l144.085333-160.128a21.333333 21.333333 0 0 0-15.872-35.584H896v-369.066667h80.085333a21.333333 21.333333 0 0 0 15.872-35.584l-144.085333-160.085333a21.333333 21.333333 0 0 0-31.744 0zM97.536 170.666667C67.242667 170.666667 42.666667 199.338667 42.666667 234.666667S67.242667 298.666667 97.536 298.666667h487.594667C615.424 298.666667 640 269.994667 640 234.666667S615.424 170.666667 585.130667 170.666667H97.536zM42.666667 512c0-35.370667 24.576-64 54.869333-64h487.594667c30.293333 0 54.869333 28.629333 54.869333 64 0 35.328-24.576 64-54.869333 64H97.536C67.242667 576 42.666667 547.328 42.666667 512z m0 277.333333c0-35.328 24.576-64 54.869333-64h487.594667c30.293333 0 54.869333 28.672 54.869333 64s-24.576 64-54.869333 64H97.536C67.242667 853.333333 42.666667 824.661333 42.666667 789.333333z" fill="currentColor" opacity=".99" p-id="4143"></path></svg>