<svg viewBox="0 0 1024 1024" version="1.1" xmlns="http://www.w3.org/2000/svg" p-id="15994" width="81" height="81"><path d="M912 256c26.5 0 48-21.5 48-48v-96c0-26.5-21.5-48-48-48H112c-23 0-42.1 16.1-46.9 37.7-4.4 17.3 1 36.5 15.6 48.7l356.5 299.1L81.9 873.1c-1.3 1.5-2.4 3.1-3.4 4.7-9 8.6-14.5 20.8-14.5 34.2 0 26.5 21.5 48 48 48h800c26.5 0 48-21.5 48-48v-96c0-26.5-21.5-48-48-48s-48 21.5-48 48v48H214.8l326.9-389.6c17-20.3 14.4-50.6-5.9-67.6-0.5-0.4-1.1-0.9-1.6-1.3l-0.2-0.2L241.6 160H864v48c0 26.5 21.5 48 48 48z" fill="currentColor"></path></svg>