<svg xmlns="http://www.w3.org/2000/svg" xmlns:xlink="http://www.w3.org/1999/xlink" aria-hidden="true" role="img" class="iconify iconify--fa-solid" width="16" height="16" preserveAspectRatio="xMidYMid meet" viewBox="0 0 1200 1200"><path d="M960 1024H640c-35.344 0-64-28.656-64-64V704h64v256h320V64H640v256h-64V64s28.656-64 64-64h320c35.344 0 64 28.656 64 64v896s-28.656 64-64 64zM256 576H128V448h128V320l192 192-192 192V576zM384 64H64v896h320V704h64v256s-28.656 64-64 64H64c-35.344 0-64-28.656-64-64V64S28.656 0 64 0h320c35.344 0 64 28.656 64 64v256h-64V64z m192 448l192-192v128h128v128H768v128L576 512z" fill="currentColor"></path></svg>