<svg xmlns="http://www.w3.org/2000/svg" xmlns:xlink="http://www.w3.org/1999/xlink" aria-hidden="true" role="img" class="iconify iconify--fa-solid" width="16" height="16" preserveAspectRatio="xMidYMid meet" viewBox="0 0 1000 1000"><path d="M648.509 641.002a30.883 30.883 0 0 1 0-43.462l54.796-54.771H587.86a30.769 30.769 0 0 1 0-61.538h115.445l-54.796-54.747a30.784 30.784 0 1 1 43.536-43.535l107.27 107.296a18.403 18.403 0 0 1 2.593 3.901l1.26 2.149c0.518 0.889 1.136 1.703 2.692 3.852 3.136 7.532 3.136 16.174-0.939 25.04a26.282 26.282 0 0 0-1.728 2.469l-1.284 2.198a18.403 18.403 0 0 1-2.593 3.901L692.045 641.002a30.777 30.777 0 0 1-43.536 0zM291.58 125.538v158.289h61.537V64H64v896h289.118V740.173h-61.537v158.29H125.538V125.537zM960 64H670.882v219.827h61.537v-158.29h166.043v772.925H732.42V740.173h-61.537V960H960zM436.14 481.231H320.695l54.796-54.747a30.784 30.784 0 0 0-43.535-43.535L224.684 490.245a18.403 18.403 0 0 0-2.592 3.901l-1.285 2.198a26.282 26.282 0 0 1-1.728 2.47c-4.075 8.865-4.075 17.507-0.939 25.04 1.556 2.148 2.174 2.962 2.692 3.851l1.26 2.149a18.403 18.403 0 0 0 2.592 3.901l107.271 107.247a30.758 30.758 0 0 0 43.536-43.462l-54.796-54.771H436.14a30.769 30.769 0 0 0 0-61.538z" fill="currentColor"></path></svg>