<svg t="1669795087964" class="icon" viewBox="0 0 1024 1024" version="1.1" xmlns="http://www.w3.org/2000/svg" p-id="4325" width="64" height="64"><path d="M314.624 121.44L33.056 896h124.32l59.488-173.184h293.792L570.688 896h123.776L412.896 121.44H314.624zM250.88 618.688l112.096-338.4h2.112l112.096 338.4H250.88zM848 672L704 896h288zM774.496 249.472a334.24 334.24 0 0 0-73.472 80.064c-19.36 29.888-29.024 60.992-29.024 93.312h288v-80.096h-158.688c5.888-10.784 22.784-27.168 50.688-49.216 39.168-30.848 65.632-55.968 79.36-75.296 13.728-19.328 20.576-41.76 20.576-67.232 0-35.744-11.872-64.512-35.648-86.336S860.576 32 820.416 32c-77.376 0-124.896 34.272-142.528 102.848l95.52 15.424c5.888-25.472 19.584-38.208 41.152-38.208 10.784 0 19.712 3.424 26.816 10.304 7.104 6.848 10.656 15.904 10.656 27.168 0 14.688-5.504 29.152-16.544 43.36-11.04 14.208-31.36 33.056-60.992 56.576z" p-id="4326" fill="currentColor"></path></svg>